<svg id="Layer_1" enable-background="new 0 0 512 512" height="512" viewBox="0 0 512 512" width="512" xmlns="http://www.w3.org/2000/svg"><g><g>
	<path d="m510.931 461.972c-2.753-9.682-10.458-17.131-21.698-20.974-10.276-3.514-22.491-3.588-34.395-.202-2.553.726-5.007 1.586-7.358 2.558v-195.833c0-23.609-3.808-46.926-11.319-69.301l-18.628-55.537c4.777-3.107 7.948-8.483 7.948-14.593v-16.179c0-9.599-7.81-17.409-17.409-17.409h-28.763c6.758-15.24 5.515-31.053-4.132-40.689-7.119-7.12-17.477-9.874-29.163-7.765-10.687 1.932-21.391 7.814-30.141 16.563-9.328 9.328-15.301 20.799-16.846 31.891h-14.164c3.468-5.855 6.053-12.579 7.479-19.739 2.425-12.134 1.379-24.303-2.944-34.267-4.728-10.896-12.769-17.984-22.637-19.953-9.875-1.974-20.02 1.476-28.572 9.721-7.818 7.538-13.459 18.374-15.884 30.513-2.432 12.183-1.357 24.079 2.701 33.725h-10.804c-.414-3.047-1.045-6.102-1.907-9.139-3.383-11.906-9.87-22.259-18.266-29.151-9.182-7.537-19.573-10.17-29.259-7.42-16.543 4.71-25.813 23.866-23.245 45.711h-37.619c-9.6 0-17.409 7.81-17.409 17.409v16.179c0 6.11 3.171 11.486 7.948 14.593l-18.628 55.536c-7.511 22.376-11.319 45.693-11.319 69.303v136.46c0 4.142 3.358 7.499 7.5 7.499s7.5-3.357 7.5-7.499v-136.46c0-21.984 3.546-43.694 10.541-64.531l19.283-57.491h218.587c4.142 0 7.5-3.357 7.5-7.499s-3.358-7.499-7.5-7.499h-224.002c-1.329 0-2.41-1.081-2.41-2.41v-16.182c0-1.329 1.081-2.41 2.41-2.41h46.66c.008 0 .016.002.024.002.01 0 .02-.002.03-.002h32.69c.009 0 .018.002.028.002.012 0 .024-.002.036-.002h69.264c.013 0 .025.002.038.002.009 0 .018-.002.027-.002h155.369c1.329 0 2.41 1.081 2.41 2.41v16.179c0 1.329-1.081 2.41-2.41 2.41h-44.934c-4.142 0-7.5 3.357-7.5 7.499s3.358 7.499 7.5 7.499h39.519l19.284 57.493c6.994 20.835 10.54 42.546 10.54 64.53v204.701c-11.968 9.791-17.845 23.294-14.208 36.09.454 1.597 1.055 3.126 1.772 4.594-4.19 2.645-9.044 4.067-14.123 4.067h-130.573c6.048-5.515 9.819-12.556 10.298-20.485.607-10.047-4.199-19.627-13.534-26.974-8.535-6.716-20.038-10.826-32.391-11.572-26.964-1.622-49.022 12.753-50.229 32.739-.588 9.742 3.926 19.038 12.71 26.292h-96.148c-14.644 0-26.559-11.918-26.559-26.568v-51.195c0-4.142-3.358-7.499-7.5-7.499s-7.5 3.357-7.5 7.499v21.094c-5.308-6.716-11.735-12.073-18.708-15.478-10.673-5.213-21.389-5.379-30.174-.465-8.786 4.913-14.254 14.13-15.399 25.953-1.047 10.81 1.704 22.711 7.745 33.512 6.041 10.8 14.742 19.374 24.501 24.14 5.504 2.687 11.018 4.034 16.273 4.034 4.938 0 9.647-1.189 13.903-3.569 4.899-2.74 8.688-6.766 11.315-11.659 7.628 9.275 19.186 15.201 32.103 15.201h299.866c8.754 0 17.082-2.697 24.062-7.681 2.906 2.028 6.246 3.715 9.987 4.994 5.24 1.793 10.984 2.689 16.934 2.689 5.718 0 11.627-.828 17.461-2.487 25.979-7.385 42.04-28.256 36.565-47.516zm-163.47-387.47c.98-1.785 1.861-3.596 2.614-5.437 4.093-9.992 10.85-16.877 16.827-21.355 3.378 6.742 1.635 17.167-4.634 26.792zm-20.982-21.284c6.514-6.514 14.606-11.037 22.202-12.41 1.005-.181 2.237-.345 3.59-.408-6.013 5.559-12.018 13.073-16.077 22.983-1.57 3.836-3.877 7.563-6.854 11.119h-15.101c1.542-7.246 5.892-14.937 12.24-21.284zm-50.841-26.751c3.073 7.082 3.8 16.325 1.995 25.362-1.834 9.206-6.021 17.314-11.625 22.673h-2.584c2.663-8.94 4.239-19.713 2.016-30.706-2.146-10.599-.337-20.08 2.156-27.12 4.27 2.423 6.801 6.93 8.042 9.791zm-38.623 17.247c1.805-9.037 6.028-17.294 11.585-22.652.735-.708 1.668-1.527 2.758-2.329-1.92 7.959-2.745 17.541-.619 28.038 2.002 9.902-.248 19.96-3.115 27.731h-5.434c-5.453-7.024-7.541-18.937-5.175-30.788zm-39.148 25.746c.477 1.681.84 3.364 1.139 5.043h-11.163c-1.353-2.339-2.839-4.564-4.479-6.618-6.744-8.448-9.468-17.713-10.47-25.119 4.901.21 9.209 3.061 11.619 5.04 5.968 4.898 10.836 12.792 13.354 21.654zm-38.474-17.437c1.721 7.093 4.808 14.934 10.187 22.479h-12.899c-1.273-8.503-.191-16.591 2.712-22.479zm49.607 430.772c4.495.863 9.33 1.426 14.337 1.426 6.283 0 12.83-.879 19.278-3.133 10.203-3.572 19.85-3.073 27.173-1.566-3.633 9.197-17.696 15.699-33.464 14.734-9.196-.556-17.95-3.612-24.017-8.387-.98-.77-2.161-1.806-3.307-3.074zm26.753-29.973c1.013 0 2.038.03 3.067.093 9.197.556 17.951 3.612 24.018 8.387.802.632 1.741 1.445 2.686 2.415-8.151-.814-17.758-.323-27.862 3.214-11.225 3.925-23.513 2.008-31.859-.292 3.943-8.068 16.025-13.817 29.95-13.817zm-196.545-14.52c6.938 3.388 13.495 9.944 17.993 17.985 5.468 9.777 7.193 20.404 5.346 28.352-3.715-7.312-9.321-15.153-17.77-21.762-9.358-7.324-14.378-18.696-16.95-26.962 4.449-.497 8.791 1.122 11.381 2.387zm-.162 56.187c-6.937-3.388-13.495-9.944-17.993-17.984-4.498-8.041-6.651-17.06-5.906-24.745.12-1.238.354-2.79.801-4.438 3.835 9.583 9.924 19.807 19.586 27.369 8.511 6.658 13.3 15.043 15.985 22.019-4.819.932-9.67-.853-12.473-2.221zm419.893-39.266c4.452-1.266 9.005-1.898 13.363-1.898 4.317 0 8.442.622 12.078 1.865.967.331 2.122.787 3.335 1.391-7.961 1.929-16.865 5.571-25.23 12.253-9.292 7.416-21.525 9.675-30.163 10.267 1.128-9.568 11.981-19.717 26.617-23.878zm11.326 39.839c-8.862 2.519-18.135 2.531-25.44.033-1.177-.402-2.634-.989-4.134-1.805 10.21-1.519 21.564-5.083 31.152-12.736 8.447-6.747 17.715-9.47 25.124-10.47-.384 9.878-11.502 20.657-26.702 24.978z"/><path d="m340.714 342.211h-12.292c-4.142 0-7.5 3.357-7.5 7.499s3.358 7.499 7.5 7.499h12.292c26.19 0 47.498-21.307 47.498-47.498 0-26.19-21.308-47.497-47.498-47.497h-169.449c-26.19 0-47.498 21.307-47.498 47.497s21.308 47.498 47.498 47.498h121.774c4.142 0 7.5-3.357 7.5-7.499s-3.358-7.499-7.5-7.499h-121.774c-17.92 0-32.498-14.579-32.498-32.499s14.579-32.498 32.498-32.498h169.449c17.92 0 32.498 14.578 32.498 32.498 0 17.919-14.579 32.499-32.498 32.499z"/></g></g></svg>